<svg width="35" height="43" viewBox="0 0 35 43" fill="none" xmlns="http://www.w3.org/2000/svg">
<mask id="mask0" mask-type="alpha" maskUnits="userSpaceOnUse" x="0" y="0" width="35" height="43">
<path d="M0 0H13.8542C25.5327 0 35 9.46731 35 21.1458C35 32.8244 25.5327 42.2917 13.8542 42.2917H0V0Z" fill="#403D56"/>
</mask>
<g mask="url(#mask0)">
<path d="M0 5.83334C0 2.61168 2.61167 0 5.83333 0H13.8542C25.5327 0 35 9.46731 35 21.1458C35 32.8244 25.5327 42.2917 13.8542 42.2917H5.83333C2.61167 42.2917 0 39.68 0 36.4583V5.83334Z" fill="#403D56"/>
<path fill-rule="evenodd" clip-rule="evenodd" d="M2.91667 15.7557C1.30584 15.7557 0 17.0616 0 18.6724V27.3022V30.2533V36.4583C0 39.68 2.61167 42.2917 5.83333 42.2917H20.0106C28.289 42.2917 35 35.5807 35 27.3022H29.1666V23.2333C29.1666 21.6225 27.8608 20.3166 26.25 20.3166C24.6391 20.3166 23.3333 21.6225 23.3333 23.2333V27.3022H17.5V25.721C17.5 24.1102 16.1942 22.8044 14.5834 22.8044C12.9725 22.8044 11.6667 24.1102 11.6667 25.721V27.3022H5.83333V18.6724C5.83333 17.0616 4.5275 15.7557 2.91667 15.7557Z" fill="url(#paint0_linear)"/>
<rect x="5.83325" y="19.0727" width="5.83333" height="12.4387" rx="2.91667" fill="#403D56"/>
<rect x="17.5" y="21.9751" width="5.83333" height="16.585" rx="2.91667" fill="#403D56"/>
<rect x="29.1667" y="14.0972" width="5.83333" height="16.585" rx="2.91667" fill="#403D56"/>
</g>
<path d="M20.4302 12.5575C20.2497 12.3515 20.0353 12.1881 19.7994 12.0767C19.5634 11.9652 19.3106 11.9078 19.0552 11.9078C18.7998 11.9078 18.5469 11.9652 18.311 12.0767C18.075 12.1881 17.8607 12.3515 17.6801 12.5575L17.3054 12.9847L16.9307 12.5575C16.5661 12.1417 16.0714 11.9081 15.5557 11.9081C15.04 11.9081 14.5453 12.1417 14.1806 12.5575C13.816 12.9733 13.6111 13.5373 13.6111 14.1253C13.6111 14.7134 13.816 15.2773 14.1806 15.6931L14.5553 16.1204L17.3054 19.256L20.0555 16.1204L20.4302 15.6931C20.6108 15.4873 20.7541 15.2429 20.8519 14.9738C20.9497 14.7048 21 14.4165 21 14.1253C21 13.8341 20.9497 13.5458 20.8519 13.2768C20.7541 13.0077 20.6108 12.7633 20.4302 12.5575Z" fill="#F8F3AF" stroke="#F8F3AF" stroke-linecap="round" stroke-linejoin="round"/>
<defs>
<linearGradient id="paint0_linear" x1="17.5" y1="19.0727" x2="6.90227" y2="41.7926" gradientUnits="userSpaceOnUse">
<stop stop-color="#F8F3AF"/>
<stop offset="1" stop-color="#FC7753"/>
</linearGradient>
</defs>
</svg>
